<mxfile host="app.diagrams.net" modified="2024-02-24T11:37:10.383Z" agent="Mozilla/5.0 (Macintosh; Intel Mac OS X 10_15_7) AppleWebKit/605.1.15 (KHTML, like Gecko) Version/17.1.2 Safari/605.1.15" version="23.1.6" etag="AKsvltgpikM05KZvFslS" type="github">
  <diagram name="第 1 页" id="CqxXhbiN4L5IOynHPSB4">
    <mxGraphModel>
      <root>
        <mxCell id="0" />
        <mxCell id="1" parent="0" />
      </root>
    </mxGraphModel>
  </diagram>
</mxfile>
